# xmcd
#
# Track frame offsets: 
#        150
#        22828
#        38563
#        58282
#        92700
#        111080
#        137198
#        156510
#        173889
#        202718
#        233722
#        249655
#        275419
#        289400
#
# Disc length: 4082 seconds
#
# Revision: 1
# Processed by: cddbd v1.4PL0 Copyright (c) Steve Scherf et al.
# Submitted via: ExactAudioCopy v0.95a3
#
DISCID=c40ff00e
DTITLE=Majestics Rhythm Revue - Kickin' It With You
DYEAR=2002
DGENRE=Jazz+Funk
TTITLE0=Maple Syrup
TTITLE1=General Bob
TTITLE2=Damn Baby
TTITLE3=Pussycat
TTITLE4=Mint July
TTITLE5=Sleep Standing Up
TTITLE6=Blue giant
TTITLE7=Peanut Brittle
TTITLE8=X-Treme
TTITLE9=Murder
TTITLE10=Yello Jello
TTITLE11=Is It Workin'
TTITLE12=See the Monkey
TTITLE13=I Don't Beleive
EXTD=
EXTT0=
EXTT1=
EXTT2=
EXTT3=
EXTT4=
EXTT5=
EXTT6=
EXTT7=
EXTT8=
EXTT9=
EXTT10=
EXTT11=
EXTT12=
EXTT13=
PLAYORDER=
